<svg width="1069" height="229" viewBox="0 0 1069 229" fill="none" xmlns="http://www.w3.org/2000/svg">
<path d="M513.552 181.38C513.552 164.18 548.219 152.83 548.219 134.069C548.219 123.092 537.004 113.559 535.322 113C535.454 113.769 535.52 114.562 535.52 115.331C535.52 136.796 487 151.199 487 177.931C487 189.537 497.621 196.389 508.935 203.171C530.407 214.055 534.695 219.812 534.695 223.354C534.695 225.708 533.112 227.316 533.112 228.552C537.433 224.659 538.852 221.117 538.884 217.738C538.884 210.839 531.727 204.616 524.305 197.578C519.028 192.381 513.552 187.649 513.552 181.38ZM581.269 172.291C577.278 156.722 555.542 143.298 550.033 141.783L551.353 143.461C552.144 144.65 552.474 146.001 552.474 147.446C552.474 157.864 534.597 173.363 533.805 174.645C533.079 175.833 532.749 177.092 532.749 178.327C532.749 183.011 537.763 188.139 538.654 188.139C539.445 188.139 557.323 175.227 557.818 167.699C559.929 170.426 560.819 172.967 560.819 175.484C560.819 185.086 547.032 198.067 547.032 198.067C547.032 200.771 557.554 210.466 558.741 210.466C559.071 210.466 559.467 210.14 559.797 209.907C572.298 200.747 581.995 190.097 581.995 178.024C581.995 176.159 581.764 174.248 581.269 172.291Z" fill="#FF8B00"/>
<ellipse cx="960.369" cy="103.422" rx="55.9957" ry="53.4219" fill="white"/>
<rect x="993.965" y="115.791" width="75.0343" height="24.5741" rx="10.6844" fill="white"/>
<path d="M993.965 77.3269C993.965 71.4261 998.748 66.6425 1004.65 66.6425H1058.31C1064.22 66.6425 1069 71.4261 1069 77.3269V80.5322C1069 86.4331 1064.22 91.2166 1058.31 91.2166H1004.65C998.748 91.2166 993.965 86.4331 993.965 80.5322V77.3269Z" fill="white"/>
<path d="M0 102C0 96.4772 4.47715 92 10 92H470V115H10C4.47715 115 0 110.523 0 105V102Z" fill="white"/>
<path d="M911.058 105.083C911.049 110.606 906.563 115.075 901.041 115.065L596.986 114.52L597.027 91.5199L901.082 92.0651C906.605 92.075 911.074 96.5601 911.064 102.083L911.058 105.083Z" fill="white"/>
<path d="M498.953 80.6578L510.476 90.3794L514.663 86.4613L517.597 96.3876L529.12 106.109L519.41 102.522L522.344 112.449L513.409 100.306L503.7 96.7189L507.888 92.8009L498.953 80.6578Z" fill="#FF8B00"/>
<path d="M540.539 60.9211L557.569 76.5293L561.757 72.6112L568.094 86.1756L585.125 101.784L572.011 94.5589L578.349 108.123L563.907 90.0937L550.793 82.8688L554.981 78.9508L540.539 60.9211Z" fill="#FF8B00"/>
<path d="M500.217 44.7824L508.852 52.4744L511.333 50.1526L514.189 57.2283L522.824 64.9202L515.953 61.6013L518.808 68.677L511.707 59.5501L504.837 56.2312L507.318 53.9093L500.217 44.7824Z" fill="#FF8B00"/>
<path d="M515.031 19.9662L532.061 35.5743L536.249 31.6563L542.587 45.2207L559.617 60.8288L546.504 53.604L552.841 67.1684L538.399 49.1388L525.286 41.9139L529.473 37.9958L515.031 19.9662Z" fill="#FF8B00"/>
<path d="M592.508 67.5568L564.621 75.1072L562.953 58.2091L592.508 67.5568Z" fill="#FF8B00"/>
<path d="M541.447 52.2672L539.583 79.9862L523.958 71.8686L541.447 52.2672Z" fill="#FF8B00"/>
<path d="M497.739 62.5148L491.744 87.1157L483.361 82.3918L497.739 62.5148Z" fill="#FF8B00"/>
<path d="M539.112 92.0825L553.616 119.904L546.055 121.871L539.112 92.0825Z" fill="#FF8B00"/>
</svg>
