<svg width="86" height="109" viewBox="0 0 86 109" fill="none" xmlns="http://www.w3.org/2000/svg">
<path d="M24.2976 64C24.2976 47.9019 55.2523 37.2788 55.2523 19.7192C55.2523 9.44513 45.2384 0.523518 43.7363 0C43.8541 0.719837 43.9131 1.46149 43.9131 2.18132C43.9131 22.2713 0.588257 35.7519 0.588257 60.7717C0.588257 71.6347 10.072 78.0477 20.1742 84.3954C39.3479 94.5822 43.1767 99.97 43.1767 103.286C43.1767 105.489 41.763 106.994 41.763 108.15C45.6213 104.507 46.8878 101.192 46.9172 98.0287C46.9172 91.572 40.526 85.7478 33.8992 79.1602C29.1867 74.2959 24.2976 69.8678 24.2976 64ZM84.7638 55.4929C81.2001 40.9216 61.7908 28.3572 56.8722 26.9393L58.0503 28.5099C58.7572 29.6224 59.0517 30.8875 59.0517 32.24C59.0517 41.9905 43.0884 56.4963 42.3815 57.696C41.7336 58.8085 41.439 59.9864 41.439 61.1425C41.439 65.5269 45.9158 70.3259 46.7111 70.3259C47.4179 70.3259 63.3812 58.2413 63.823 51.1957C65.708 53.7478 66.5032 56.1255 66.5032 58.4813C66.5032 67.4683 54.192 79.6183 54.192 79.6183C54.192 82.1486 63.5874 91.2229 64.6477 91.2229C64.9422 91.2229 65.2957 90.9176 65.5902 90.6994C76.7527 82.1268 85.4118 72.1582 85.4118 60.8589C85.4118 59.1139 85.2056 57.3252 84.7638 55.4929Z" fill="#FF8B00"/>
</svg>
