<svg width="136" height="32" viewBox="0 0 136 32" fill="none" xmlns="http://www.w3.org/2000/svg">
<path d="M11.387 8.62909L0 21.1124H10.2483L9.10959 29.4346L20.4966 16.9513H10.2483L11.387 8.62909Z" fill="#089285"/>
<path d="M24.1404 1.97134L12.7534 14.4547H23.0017L21.863 22.7769L33.25 10.2936H23.0017L24.1404 1.97134Z" fill="#FF8B00"/>
<path d="M23.7863 26.5604C22.6597 26.8559 21.4556 26.7813 20.3834 26.3494C19.3111 25.9176 18.4385 25.1559 17.9173 24.1968" stroke="#7E7A8F" stroke-width="1.82192" stroke-linecap="round" stroke-linejoin="round"/>
<path d="M23.8907 30.0366C22.1994 30.527 20.3704 30.4367 18.7467 29.7828C17.1231 29.129 15.8164 27.9564 15.0716 26.485" stroke="#7E7A8F" stroke-width="1.82192" stroke-linecap="round" stroke-linejoin="round"/>
<path d="M9.22735 5.44246C10.3539 5.14696 11.558 5.22162 12.6303 5.65344C13.7025 6.08526 14.5751 6.84694 15.0963 7.80603" stroke="#7E7A8F" stroke-width="1.82192" stroke-linecap="round" stroke-linejoin="round"/>
<path d="M9.123 1.96626C10.8143 1.47594 12.6433 1.56618 14.2669 2.22006C15.8906 2.87394 17.1973 4.04654 17.9421 5.5179" stroke="#7E7A8F" stroke-width="1.82192" stroke-linecap="round" stroke-linejoin="round"/>
<path d="M37.8203 25H35.4375V13.5781H41.9844V15.5625H37.8203V18.5078H41.6953V20.4844H37.8203V25ZM43.9297 14.0078C43.9297 13.2318 44.362 12.8438 45.2266 12.8438C46.0911 12.8438 46.5234 13.2318 46.5234 14.0078C46.5234 14.3776 46.4141 14.6667 46.1953 14.875C45.9818 15.0781 45.6589 15.1797 45.2266 15.1797C44.362 15.1797 43.9297 14.7891 43.9297 14.0078ZM46.4141 25H44.0312V16.2656H46.4141V25ZM53.7969 16.1016C54.1198 16.1016 54.388 16.125 54.6016 16.1719L54.4219 18.4062C54.2292 18.3542 53.9948 18.3281 53.7188 18.3281C52.9583 18.3281 52.3646 18.5234 51.9375 18.9141C51.5156 19.3047 51.3047 19.8516 51.3047 20.5547V25H48.9219V16.2656H50.7266L51.0781 17.7344H51.1953C51.4661 17.2448 51.8307 16.8516 52.2891 16.5547C52.7526 16.2526 53.2552 16.1016 53.7969 16.1016ZM59.8047 17.7969C59.2995 17.7969 58.9036 17.9583 58.6172 18.2812C58.3307 18.599 58.1667 19.0521 58.125 19.6406H61.4688C61.4583 19.0521 61.3047 18.599 61.0078 18.2812C60.7109 17.9583 60.3099 17.7969 59.8047 17.7969ZM60.1406 25.1562C58.7344 25.1562 57.6354 24.7682 56.8438 23.9922C56.0521 23.2161 55.6562 22.1172 55.6562 20.6953C55.6562 19.2318 56.0208 18.1016 56.75 17.3047C57.4844 16.5026 58.4974 16.1016 59.7891 16.1016C61.0234 16.1016 61.9844 16.4531 62.6719 17.1562C63.3594 17.8594 63.7031 18.8307 63.7031 20.0703V21.2266H58.0703C58.0964 21.9036 58.2969 22.4323 58.6719 22.8125C59.0469 23.1927 59.5729 23.3828 60.25 23.3828C60.776 23.3828 61.2734 23.3281 61.7422 23.2188C62.2109 23.1094 62.7005 22.9349 63.2109 22.6953V24.5391C62.7943 24.7474 62.349 24.901 61.875 25C61.401 25.1042 60.8229 25.1562 60.1406 25.1562ZM68.25 18.6484H69.0312C69.7969 18.6484 70.362 18.5208 70.7266 18.2656C71.0911 18.0104 71.2734 17.6094 71.2734 17.0625C71.2734 16.5208 71.0859 16.1354 70.7109 15.9062C70.3411 15.6771 69.7656 15.5625 68.9844 15.5625H68.25V18.6484ZM68.25 20.6172V25H65.8281V13.5781H69.1562C70.7083 13.5781 71.8568 13.862 72.6016 14.4297C73.3464 14.9922 73.7188 15.849 73.7188 17C73.7188 17.6719 73.5339 18.2708 73.1641 18.7969C72.7943 19.3177 72.2708 19.7266 71.5938 20.0234C73.3125 22.5911 74.4323 24.25 74.9531 25H72.2656L69.5391 20.6172H68.25ZM79.8203 17.7969C79.3151 17.7969 78.9193 17.9583 78.6328 18.2812C78.3464 18.599 78.1823 19.0521 78.1406 19.6406H81.4844C81.474 19.0521 81.3203 18.599 81.0234 18.2812C80.7266 17.9583 80.3255 17.7969 79.8203 17.7969ZM80.1562 25.1562C78.75 25.1562 77.651 24.7682 76.8594 23.9922C76.0677 23.2161 75.6719 22.1172 75.6719 20.6953C75.6719 19.2318 76.0365 18.1016 76.7656 17.3047C77.5 16.5026 78.513 16.1016 79.8047 16.1016C81.0391 16.1016 82 16.4531 82.6875 17.1562C83.375 17.8594 83.7188 18.8307 83.7188 20.0703V21.2266H78.0859C78.112 21.9036 78.3125 22.4323 78.6875 22.8125C79.0625 23.1927 79.5885 23.3828 80.2656 23.3828C80.7917 23.3828 81.2891 23.3281 81.7578 23.2188C82.2266 23.1094 82.7161 22.9349 83.2266 22.6953V24.5391C82.8099 24.7474 82.3646 24.901 81.8906 25C81.4167 25.1042 80.8385 25.1562 80.1562 25.1562ZM90.4531 25.1562C89.4271 25.1562 88.6224 24.7839 88.0391 24.0391H87.9141C87.9974 24.7682 88.0391 25.1901 88.0391 25.3047V28.8438H85.6562V16.2656H87.5938L87.9297 17.3984H88.0391C88.5964 16.5339 89.4219 16.1016 90.5156 16.1016C91.5469 16.1016 92.3542 16.5 92.9375 17.2969C93.5208 18.0938 93.8125 19.2005 93.8125 20.6172C93.8125 21.5495 93.6745 22.3594 93.3984 23.0469C93.1276 23.7344 92.7396 24.2578 92.2344 24.6172C91.7292 24.9766 91.1354 25.1562 90.4531 25.1562ZM89.75 18.0078C89.1615 18.0078 88.7318 18.1901 88.4609 18.5547C88.1901 18.9141 88.0495 19.5104 88.0391 20.3438V20.6016C88.0391 21.5391 88.1771 22.2109 88.4531 22.6172C88.7344 23.0234 89.1771 23.2266 89.7812 23.2266C90.849 23.2266 91.3828 22.3464 91.3828 20.5859C91.3828 19.7266 91.25 19.0833 90.9844 18.6562C90.724 18.224 90.3125 18.0078 89.75 18.0078ZM97.6797 20.6172C97.6797 21.4818 97.8203 22.1354 98.1016 22.5781C98.388 23.0208 98.8516 23.2422 99.4922 23.2422C100.128 23.2422 100.583 23.0234 100.859 22.5859C101.141 22.1432 101.281 21.487 101.281 20.6172C101.281 19.7526 101.141 19.1042 100.859 18.6719C100.578 18.2396 100.117 18.0234 99.4766 18.0234C98.8411 18.0234 98.3828 18.2396 98.1016 18.6719C97.8203 19.099 97.6797 19.7474 97.6797 20.6172ZM103.719 20.6172C103.719 22.0391 103.344 23.151 102.594 23.9531C101.844 24.7552 100.799 25.1562 99.4609 25.1562C98.6224 25.1562 97.8828 24.974 97.2422 24.6094C96.6016 24.2396 96.1094 23.7109 95.7656 23.0234C95.4219 22.3359 95.25 21.5339 95.25 20.6172C95.25 19.1901 95.6224 18.0807 96.3672 17.2891C97.112 16.4974 98.1589 16.1016 99.5078 16.1016C100.346 16.1016 101.086 16.2839 101.727 16.6484C102.367 17.013 102.859 17.5365 103.203 18.2188C103.547 18.901 103.719 19.7005 103.719 20.6172ZM110.562 16.1016C110.885 16.1016 111.154 16.125 111.367 16.1719L111.188 18.4062C110.995 18.3542 110.76 18.3281 110.484 18.3281C109.724 18.3281 109.13 18.5234 108.703 18.9141C108.281 19.3047 108.07 19.8516 108.07 20.5547V25H105.688V16.2656H107.492L107.844 17.7344H107.961C108.232 17.2448 108.596 16.8516 109.055 16.5547C109.518 16.2526 110.021 16.1016 110.562 16.1016ZM116.633 23.2578C117.049 23.2578 117.549 23.1667 118.133 22.9844V24.7578C117.539 25.0234 116.81 25.1562 115.945 25.1562C114.992 25.1562 114.297 24.9167 113.859 24.4375C113.427 23.9531 113.211 23.2292 113.211 22.2656V18.0547H112.07V17.0469L113.383 16.25L114.07 14.4062H115.594V16.2656H118.039V18.0547H115.594V22.2656C115.594 22.6042 115.688 22.8542 115.875 23.0156C116.068 23.1771 116.32 23.2578 116.633 23.2578ZM123.523 17.7969C123.018 17.7969 122.622 17.9583 122.336 18.2812C122.049 18.599 121.885 19.0521 121.844 19.6406H125.188C125.177 19.0521 125.023 18.599 124.727 18.2812C124.43 17.9583 124.029 17.7969 123.523 17.7969ZM123.859 25.1562C122.453 25.1562 121.354 24.7682 120.562 23.9922C119.771 23.2161 119.375 22.1172 119.375 20.6953C119.375 19.2318 119.74 18.1016 120.469 17.3047C121.203 16.5026 122.216 16.1016 123.508 16.1016C124.742 16.1016 125.703 16.4531 126.391 17.1562C127.078 17.8594 127.422 18.8307 127.422 20.0703V21.2266H121.789C121.815 21.9036 122.016 22.4323 122.391 22.8125C122.766 23.1927 123.292 23.3828 123.969 23.3828C124.495 23.3828 124.992 23.3281 125.461 23.2188C125.93 23.1094 126.419 22.9349 126.93 22.6953V24.5391C126.513 24.7474 126.068 24.901 125.594 25C125.12 25.1042 124.542 25.1562 123.859 25.1562ZM134.234 16.1016C134.557 16.1016 134.826 16.125 135.039 16.1719L134.859 18.4062C134.667 18.3542 134.432 18.3281 134.156 18.3281C133.396 18.3281 132.802 18.5234 132.375 18.9141C131.953 19.3047 131.742 19.8516 131.742 20.5547V25H129.359V16.2656H131.164L131.516 17.7344H131.633C131.904 17.2448 132.268 16.8516 132.727 16.5547C133.19 16.2526 133.693 16.1016 134.234 16.1016Z" fill="#180126"/>
</svg>
